<?xml version="1.0" encoding="utf-8"?>
<!-- Generator: Adobe Illustrator 27.5.0, SVG Export Plug-In . SVG Version: 6.00 Build 0)  -->
<svg version="1.1" xmlns="http://www.w3.org/2000/svg" xmlns:xlink="http://www.w3.org/1999/xlink" x="0px" y="0px"
	 viewBox="0 0 841.89 566.929" style="enable-background:new 0 0 841.89 566.929;" xml:space="preserve">
<g id="BG_1_">
	<rect y="0" style="fill:#383C41;" width="841.89" height="566.929"/>
</g>
<g id="graphics">
	<g>
		<g>
			<path style="fill:#7C8687;" d="M329.618,454.189c-0.63-0.595-1.512-0.892-2.646-0.892c-0.81,0-1.521,0.172-2.133,0.514
				c-0.612,0.342-1.121,0.792-1.525,1.35c-0.405,0.559-0.712,1.192-0.918,1.903c-0.207,0.712-0.311,1.436-0.311,2.174
				c0,0.738,0.103,1.463,0.311,2.173c0.206,0.712,0.513,1.347,0.918,1.904c0.405,0.558,0.913,1.008,1.525,1.35
				c0.612,0.342,1.323,0.513,2.133,0.513c0.522,0,1.017-0.099,1.485-0.297c0.468-0.197,0.881-0.473,1.242-0.823
				c0.36-0.351,0.657-0.77,0.891-1.256c0.234-0.485,0.378-1.017,0.432-1.593h1.701c-0.234,1.692-0.855,3.011-1.863,3.956
				c-1.008,0.944-2.304,1.417-3.888,1.417c-1.062,0-2.003-0.193-2.821-0.58c-0.819-0.388-1.508-0.914-2.065-1.58
				c-0.558-0.665-0.981-1.444-1.269-2.335c-0.288-0.892-0.432-1.841-0.432-2.849c0-1.008,0.144-1.958,0.432-2.849
				c0.288-0.891,0.711-1.669,1.269-2.336c0.558-0.665,1.246-1.196,2.065-1.593c0.819-0.395,1.759-0.594,2.821-0.594
				c1.494,0,2.758,0.396,3.793,1.188c1.035,0.793,1.651,1.989,1.85,3.592h-1.701C330.68,455.602,330.248,454.782,329.618,454.189z"
				/>
			<path style="fill:#7C8687;" d="M337.34,452.272v3.267h0.054c0.432-1.134,1.102-2.007,2.011-2.619
				c0.909-0.611,1.993-0.891,3.253-0.837v1.701c-0.774-0.036-1.476,0.067-2.106,0.311c-0.63,0.243-1.174,0.59-1.633,1.039
				c-0.459,0.45-0.815,0.985-1.066,1.606c-0.252,0.621-0.378,1.301-0.378,2.039v7.425h-1.701v-13.932H337.34z"/>
			<path style="fill:#7C8687;" d="M345.724,461.6c0.171,0.657,0.445,1.247,0.824,1.769c0.378,0.522,0.854,0.954,1.431,1.296
				c0.576,0.342,1.269,0.513,2.079,0.513c1.242,0,2.214-0.323,2.916-0.972c0.702-0.648,1.188-1.512,1.458-2.592h1.701
				c-0.36,1.584-1.022,2.808-1.985,3.672c-0.963,0.864-2.327,1.296-4.09,1.296c-1.098,0-2.048-0.193-2.849-0.58
				c-0.801-0.388-1.454-0.918-1.957-1.594c-0.504-0.675-0.878-1.458-1.12-2.349c-0.243-0.891-0.365-1.831-0.365-2.821
				c0-0.918,0.122-1.818,0.365-2.7c0.243-0.882,0.616-1.669,1.12-2.362c0.504-0.693,1.157-1.251,1.957-1.674
				c0.801-0.423,1.751-0.635,2.849-0.635c1.116,0,2.07,0.225,2.862,0.675c0.792,0.45,1.436,1.04,1.931,1.768
				c0.495,0.729,0.851,1.566,1.066,2.511c0.216,0.945,0.306,1.904,0.27,2.876h-10.719
				C345.467,460.309,345.552,460.942,345.724,461.6z M354.147,456.402c-0.207-0.594-0.5-1.121-0.878-1.58
				c-0.378-0.459-0.837-0.827-1.377-1.106c-0.54-0.279-1.152-0.419-1.836-0.419c-0.702,0-1.323,0.14-1.863,0.419
				c-0.54,0.279-0.999,0.647-1.377,1.106c-0.378,0.459-0.68,0.99-0.905,1.594c-0.225,0.602-0.374,1.22-0.445,1.849h9.018
				C354.467,457.617,354.354,456.996,354.147,456.402z"/>
			<path style="fill:#7C8687;" d="M359.507,454.431c0.288-0.594,0.679-1.079,1.174-1.458c0.495-0.378,1.075-0.656,1.742-0.837
				c0.666-0.18,1.404-0.27,2.214-0.27c0.612,0,1.224,0.059,1.836,0.176c0.612,0.117,1.161,0.337,1.647,0.661
				c0.486,0.324,0.882,0.778,1.188,1.363c0.306,0.585,0.459,1.346,0.459,2.281v7.398c0,0.685,0.333,1.026,0.999,1.026
				c0.198,0,0.378-0.036,0.54-0.108v1.431c-0.198,0.037-0.374,0.063-0.526,0.081c-0.153,0.019-0.347,0.027-0.581,0.027
				c-0.432,0-0.779-0.059-1.039-0.176c-0.261-0.116-0.464-0.283-0.608-0.499c-0.145-0.216-0.239-0.473-0.284-0.77
				c-0.045-0.297-0.067-0.625-0.067-0.985h-0.054c-0.306,0.45-0.617,0.851-0.931,1.201c-0.315,0.351-0.667,0.644-1.053,0.878
				c-0.387,0.233-0.828,0.413-1.323,0.54c-0.496,0.125-1.085,0.188-1.768,0.188c-0.648,0-1.256-0.077-1.823-0.229
				c-0.567-0.152-1.062-0.396-1.485-0.728c-0.423-0.333-0.756-0.757-0.999-1.27c-0.243-0.513-0.365-1.12-0.365-1.822
				c0-0.972,0.216-1.732,0.648-2.281c0.432-0.549,1.003-0.968,1.714-1.256c0.711-0.288,1.512-0.49,2.403-0.607
				c0.891-0.117,1.795-0.23,2.713-0.338c0.36-0.035,0.675-0.081,0.945-0.135c0.27-0.054,0.495-0.148,0.675-0.283
				c0.18-0.135,0.319-0.319,0.418-0.554c0.099-0.233,0.148-0.54,0.148-0.918c0-0.576-0.094-1.049-0.283-1.418
				c-0.189-0.368-0.45-0.661-0.783-0.877c-0.333-0.216-0.72-0.364-1.161-0.445c-0.441-0.081-0.914-0.122-1.418-0.122
				c-1.08,0-1.962,0.257-2.646,0.77c-0.684,0.514-1.044,1.337-1.08,2.471h-1.701C359.048,455.728,359.219,455.025,359.507,454.431z
				 M368.012,458.589c-0.108,0.198-0.315,0.343-0.621,0.433c-0.306,0.09-0.576,0.152-0.81,0.188
				c-0.72,0.126-1.462,0.239-2.228,0.338c-0.765,0.099-1.462,0.247-2.092,0.445c-0.63,0.198-1.147,0.481-1.553,0.851
				c-0.405,0.369-0.607,0.895-0.607,1.579c0,0.433,0.085,0.814,0.256,1.147c0.171,0.334,0.4,0.621,0.689,0.864
				s0.621,0.428,0.999,0.554c0.378,0.126,0.765,0.188,1.161,0.188c0.648,0,1.269-0.099,1.863-0.297
				c0.594-0.197,1.111-0.485,1.552-0.863c0.441-0.379,0.792-0.838,1.053-1.378c0.261-0.539,0.391-1.151,0.391-1.836v-2.214H368.012z
				"/>
			<path style="fill:#7C8687;" d="M379.379,452.272v1.431h-2.835v9.395c0,0.559,0.077,0.995,0.229,1.31
				c0.153,0.315,0.536,0.491,1.148,0.527c0.486,0,0.972-0.027,1.458-0.081v1.431c-0.252,0-0.504,0.009-0.756,0.027
				c-0.252,0.017-0.504,0.026-0.756,0.026c-1.134,0-1.926-0.22-2.376-0.661c-0.45-0.441-0.666-1.256-0.648-2.443v-9.531h-2.43
				v-1.431h2.43v-4.186h1.701v4.186H379.379z"/>
			<path style="fill:#7C8687;" d="M384.239,446.925v2.728h-1.701v-2.728H384.239z M384.239,452.272v13.932h-1.701v-13.932H384.239z"
				/>
			<path style="fill:#7C8687;" d="M388.504,452.272l4.374,12.23h0.054l4.32-12.23h1.755l-5.211,13.932h-1.809l-5.373-13.932H388.504
				z"/>
			<path style="fill:#7C8687;" d="M402.612,461.6c0.171,0.657,0.445,1.247,0.824,1.769c0.378,0.522,0.854,0.954,1.431,1.296
				s1.269,0.513,2.079,0.513c1.242,0,2.214-0.323,2.916-0.972c0.702-0.648,1.188-1.512,1.458-2.592h1.701
				c-0.36,1.584-1.022,2.808-1.985,3.672c-0.963,0.864-2.327,1.296-4.09,1.296c-1.098,0-2.048-0.193-2.849-0.58
				c-0.801-0.388-1.454-0.918-1.958-1.594c-0.504-0.675-0.877-1.458-1.12-2.349c-0.243-0.891-0.365-1.831-0.365-2.821
				c0-0.918,0.122-1.818,0.365-2.7c0.243-0.882,0.616-1.669,1.12-2.362c0.504-0.693,1.157-1.251,1.958-1.674
				c0.801-0.423,1.75-0.635,2.849-0.635c1.116,0,2.07,0.225,2.862,0.675c0.792,0.45,1.436,1.04,1.931,1.768
				c0.495,0.729,0.851,1.566,1.066,2.511c0.216,0.945,0.306,1.904,0.27,2.876h-10.719
				C402.356,460.309,402.441,460.942,402.612,461.6z M411.036,456.402c-0.207-0.594-0.5-1.121-0.877-1.58
				c-0.378-0.459-0.837-0.827-1.377-1.106c-0.54-0.279-1.152-0.419-1.836-0.419c-0.702,0-1.323,0.14-1.863,0.419
				c-0.54,0.279-0.999,0.647-1.377,1.106c-0.379,0.459-0.68,0.99-0.905,1.594c-0.225,0.602-0.374,1.22-0.445,1.849h9.018
				C411.355,457.617,411.243,456.996,411.036,456.402z"/>
			<path style="fill:#7C8687;" d="M424.576,454.431c0.289-0.594,0.68-1.079,1.176-1.458c0.494-0.378,1.074-0.656,1.74-0.837
				c0.666-0.18,1.404-0.27,2.215-0.27c0.611,0,1.225,0.059,1.836,0.176c0.611,0.117,1.16,0.337,1.646,0.661
				c0.486,0.324,0.883,0.778,1.189,1.363c0.305,0.585,0.459,1.346,0.459,2.281v7.398c0,0.685,0.332,1.026,0.998,1.026
				c0.197,0,0.379-0.036,0.539-0.108v1.431c-0.197,0.037-0.373,0.063-0.525,0.081c-0.152,0.019-0.348,0.027-0.58,0.027
				c-0.432,0-0.779-0.059-1.041-0.176c-0.26-0.116-0.463-0.283-0.607-0.499c-0.143-0.216-0.238-0.473-0.283-0.77
				c-0.045-0.297-0.066-0.625-0.066-0.985h-0.055c-0.307,0.45-0.617,0.851-0.932,1.201c-0.314,0.351-0.666,0.644-1.053,0.878
				c-0.387,0.233-0.828,0.413-1.322,0.54c-0.496,0.125-1.086,0.188-1.77,0.188c-0.648,0-1.256-0.077-1.822-0.229
				c-0.566-0.152-1.063-0.396-1.484-0.728c-0.424-0.333-0.756-0.757-1-1.27c-0.242-0.513-0.363-1.12-0.363-1.822
				c0-0.972,0.215-1.732,0.646-2.281c0.434-0.549,1.004-0.968,1.715-1.256c0.711-0.288,1.512-0.49,2.404-0.607
				c0.891-0.117,1.795-0.23,2.713-0.338c0.359-0.035,0.674-0.081,0.945-0.135c0.27-0.054,0.494-0.148,0.674-0.283
				c0.18-0.135,0.32-0.319,0.42-0.554c0.098-0.233,0.148-0.54,0.148-0.918c0-0.576-0.096-1.049-0.285-1.418
				c-0.188-0.368-0.449-0.661-0.781-0.877c-0.334-0.216-0.721-0.364-1.162-0.445c-0.441-0.081-0.914-0.122-1.418-0.122
				c-1.08,0-1.961,0.257-2.645,0.77c-0.686,0.514-1.045,1.337-1.08,2.471h-1.701C424.117,455.728,424.289,455.025,424.576,454.431z
				 M433.082,458.589c-0.107,0.198-0.314,0.343-0.621,0.433c-0.307,0.09-0.576,0.152-0.81,0.188
				c-0.719,0.126-1.463,0.239-2.227,0.338c-0.766,0.099-1.463,0.247-2.094,0.445c-0.629,0.198-1.146,0.481-1.551,0.851
				c-0.406,0.369-0.607,0.895-0.607,1.579c0,0.433,0.084,0.814,0.256,1.147c0.17,0.334,0.4,0.621,0.688,0.864
				c0.289,0.243,0.621,0.428,1,0.554c0.377,0.126,0.764,0.188,1.16,0.188c0.648,0,1.27-0.099,1.863-0.297
				c0.594-0.197,1.111-0.485,1.553-0.863c0.441-0.379,0.791-0.838,1.053-1.378c0.262-0.539,0.393-1.151,0.393-1.836v-2.214H433.082z
				"/>
			<path style="fill:#7C8687;" d="M440.615,446.925v7.992h0.053c0.18-0.504,0.438-0.945,0.77-1.323
				c0.334-0.378,0.717-0.697,1.148-0.958c0.432-0.261,0.898-0.454,1.404-0.581c0.504-0.125,1.008-0.188,1.512-0.188
				c1.06,0,1.984,0.198,2.767,0.594c0.783,0.397,1.436,0.932,1.957,1.606c0.521,0.675,0.908,1.458,1.16,2.35
				c0.252,0.891,0.379,1.831,0.379,2.821c0,0.99-0.127,1.931-0.379,2.821c-0.252,0.891-0.639,1.674-1.16,2.349
				c-0.522,0.676-1.174,1.206-1.957,1.594c-0.783,0.387-1.707,0.58-2.767,0.58c-1.135,0-2.147-0.261-3.037-0.783
				c-0.892-0.522-1.535-1.269-1.932-2.241h-0.055v2.646h-1.564v-19.278H440.615z M449.809,457.091
				c-0.172-0.711-0.441-1.346-0.811-1.903c-0.369-0.558-0.842-1.013-1.418-1.364c-0.576-0.351-1.27-0.526-2.078-0.526
				c-0.9,0-1.66,0.176-2.281,0.526c-0.621,0.352-1.125,0.807-1.514,1.364c-0.387,0.558-0.666,1.192-0.836,1.903
				c-0.172,0.711-0.256,1.427-0.256,2.146c0,0.72,0.084,1.436,0.256,2.146c0.17,0.711,0.449,1.346,0.836,1.903
				c0.389,0.559,0.893,1.013,1.514,1.363c0.621,0.352,1.381,0.526,2.281,0.526c0.808,0,1.502-0.175,2.078-0.526
				c0.576-0.351,1.049-0.805,1.418-1.363c0.369-0.558,0.639-1.192,0.811-1.903c0.17-0.711,0.256-1.427,0.256-2.146
				C450.064,458.518,449.978,457.802,449.809,457.091z"/>
			<path style="fill:#7C8687;" d="M463.105,454.984c-0.199-0.387-0.463-0.706-0.797-0.958c-0.334-0.252-0.715-0.436-1.147-0.554
				c-0.434-0.117-0.893-0.176-1.377-0.176c-0.379,0-0.762,0.041-1.148,0.122c-0.387,0.081-0.742,0.216-1.066,0.404
				c-0.324,0.189-0.586,0.438-0.783,0.743c-0.197,0.306-0.297,0.684-0.297,1.134c0,0.378,0.094,0.697,0.283,0.958
				c0.19,0.262,0.428,0.482,0.717,0.662c0.287,0.18,0.602,0.328,0.943,0.445c0.342,0.117,0.658,0.212,0.945,0.283l2.268,0.514
				c0.486,0.071,0.969,0.202,1.445,0.392c0.477,0.189,0.9,0.437,1.27,0.742c0.369,0.306,0.67,0.685,0.904,1.134
				c0.234,0.45,0.352,0.982,0.352,1.593c0,0.756-0.172,1.4-0.514,1.931c-0.342,0.531-0.779,0.963-1.31,1.296
				c-0.531,0.333-1.129,0.571-1.795,0.716c-0.666,0.143-1.322,0.216-1.971,0.216c-1.639,0-2.965-0.387-3.982-1.161
				c-1.018-0.773-1.598-2.016-1.742-3.726h1.701c0.072,1.152,0.49,2.021,1.256,2.605c0.766,0.585,1.715,0.877,2.848,0.877
				c0.414,0,0.842-0.044,1.283-0.135c0.441-0.09,0.852-0.243,1.228-0.459c0.379-0.216,0.69-0.49,0.932-0.823
				c0.242-0.333,0.365-0.742,0.365-1.228c0-0.414-0.086-0.761-0.258-1.04c-0.17-0.278-0.4-0.513-0.688-0.701
				c-0.289-0.19-0.617-0.347-0.986-0.473c-0.369-0.126-0.742-0.234-1.119-0.324l-2.188-0.486c-0.559-0.144-1.072-0.311-1.539-0.499
				c-0.469-0.19-0.877-0.423-1.229-0.702c-0.352-0.279-0.627-0.621-0.824-1.026c-0.197-0.404-0.297-0.904-0.297-1.498
				c0-0.702,0.158-1.305,0.473-1.81c0.315-0.503,0.725-0.908,1.228-1.215c0.504-0.306,1.066-0.53,1.688-0.675
				c0.621-0.144,1.238-0.216,1.85-0.216c0.701,0,1.354,0.09,1.957,0.27c0.604,0.181,1.135,0.459,1.594,0.837
				c0.459,0.379,0.822,0.847,1.094,1.404c0.27,0.559,0.422,1.215,0.459,1.971h-1.701
				C463.412,455.826,463.303,455.372,463.105,454.984z"/>
			<path style="fill:#7C8687;" d="M474.283,452.272v1.431h-2.836v9.395c0,0.559,0.076,0.995,0.23,1.31
				c0.152,0.315,0.535,0.491,1.147,0.527c0.486,0,0.973-0.027,1.459-0.081v1.431c-0.254,0-0.506,0.009-0.756,0.027
				c-0.254,0.017-0.506,0.026-0.758,0.026c-1.133,0-1.926-0.22-2.375-0.661c-0.451-0.441-0.666-1.256-0.648-2.443v-9.531h-2.43
				v-1.431h2.43v-4.186h1.701v4.186H474.283z"/>
			<path style="fill:#7C8687;" d="M478.98,452.272v3.267h0.055c0.432-1.134,1.102-2.007,2.012-2.619
				c0.908-0.611,1.992-0.891,3.252-0.837v1.701c-0.773-0.036-1.475,0.067-2.105,0.311c-0.631,0.243-1.174,0.59-1.633,1.039
				c-0.459,0.45-0.814,0.985-1.066,1.606c-0.254,0.621-0.379,1.301-0.379,2.039v7.425h-1.701v-13.932H478.98z"/>
			<path style="fill:#7C8687;" d="M486.945,454.431c0.287-0.594,0.68-1.079,1.174-1.458c0.496-0.378,1.076-0.656,1.742-0.837
				c0.666-0.18,1.404-0.27,2.213-0.27c0.613,0,1.225,0.059,1.836,0.176c0.613,0.117,1.162,0.337,1.648,0.661
				c0.486,0.324,0.881,0.778,1.188,1.363c0.307,0.585,0.459,1.346,0.459,2.281v7.398c0,0.685,0.332,1.026,1,1.026
				c0.197,0,0.377-0.036,0.539-0.108v1.431c-0.199,0.037-0.373,0.063-0.527,0.081c-0.152,0.019-0.346,0.027-0.58,0.027
				c-0.432,0-0.779-0.059-1.039-0.176c-0.262-0.116-0.463-0.283-0.608-0.499c-0.145-0.216-0.238-0.473-0.283-0.77
				c-0.045-0.297-0.068-0.625-0.068-0.985h-0.053c-0.307,0.45-0.617,0.851-0.932,1.201c-0.316,0.351-0.666,0.644-1.053,0.878
				c-0.389,0.233-0.828,0.413-1.324,0.54c-0.494,0.125-1.084,0.188-1.767,0.188c-0.648,0-1.256-0.077-1.822-0.229
				c-0.568-0.152-1.063-0.396-1.486-0.728c-0.422-0.333-0.756-0.757-0.998-1.27c-0.244-0.513-0.365-1.12-0.365-1.822
				c0-0.972,0.217-1.732,0.648-2.281c0.432-0.549,1.004-0.968,1.715-1.256c0.711-0.288,1.512-0.49,2.402-0.607
				c0.891-0.117,1.795-0.23,2.713-0.338c0.361-0.035,0.676-0.081,0.945-0.135c0.27-0.054,0.496-0.148,0.676-0.283
				c0.18-0.135,0.318-0.319,0.418-0.554c0.1-0.233,0.148-0.54,0.148-0.918c0-0.576-0.094-1.049-0.283-1.418
				c-0.189-0.368-0.451-0.661-0.783-0.877c-0.334-0.216-0.721-0.364-1.16-0.445c-0.441-0.081-0.914-0.122-1.418-0.122
				c-1.08,0-1.963,0.257-2.646,0.77c-0.684,0.514-1.043,1.337-1.08,2.471h-1.701C486.486,455.728,486.656,455.025,486.945,454.431z
				 M495.449,458.589c-0.107,0.198-0.314,0.343-0.619,0.433c-0.307,0.09-0.578,0.152-0.811,0.188
				c-0.721,0.126-1.463,0.239-2.229,0.338s-1.463,0.247-2.092,0.445c-0.631,0.198-1.148,0.481-1.553,0.851
				c-0.404,0.369-0.607,0.895-0.607,1.579c0,0.433,0.086,0.814,0.256,1.147c0.172,0.334,0.4,0.621,0.689,0.864
				c0.287,0.243,0.621,0.428,0.998,0.554c0.379,0.126,0.766,0.188,1.162,0.188c0.648,0,1.27-0.099,1.863-0.297
				c0.594-0.197,1.111-0.485,1.553-0.863c0.44-0.379,0.791-0.838,1.053-1.378c0.26-0.539,0.391-1.151,0.391-1.836v-2.214H495.449z"
				/>
			<path style="fill:#7C8687;" d="M509.814,454.189c-0.631-0.595-1.512-0.892-2.646-0.892c-0.809,0-1.522,0.172-2.133,0.514
				c-0.611,0.342-1.119,0.792-1.525,1.35c-0.404,0.559-0.711,1.192-0.918,1.903c-0.207,0.712-0.311,1.436-0.311,2.174
				c0,0.738,0.104,1.463,0.311,2.173c0.207,0.712,0.514,1.347,0.918,1.904c0.406,0.558,0.914,1.008,1.525,1.35
				c0.611,0.342,1.324,0.513,2.133,0.513c0.523,0,1.017-0.099,1.486-0.297c0.467-0.197,0.881-0.473,1.242-0.823
				c0.359-0.351,0.656-0.77,0.891-1.256c0.232-0.485,0.377-1.017,0.432-1.593h1.701c-0.234,1.692-0.855,3.011-1.863,3.956
				c-1.008,0.944-2.305,1.417-3.889,1.417c-1.063,0-2.002-0.193-2.82-0.58c-0.82-0.388-1.508-0.914-2.066-1.58
				c-0.559-0.665-0.98-1.444-1.27-2.335c-0.287-0.892-0.432-1.841-0.432-2.849c0-1.008,0.145-1.958,0.432-2.849
				c0.289-0.891,0.711-1.669,1.27-2.336c0.559-0.665,1.246-1.196,2.066-1.593c0.818-0.395,1.758-0.594,2.82-0.594
				c1.494,0,2.76,0.396,3.795,1.188c1.033,0.793,1.65,1.989,1.85,3.592h-1.701C510.877,455.602,510.445,454.782,509.814,454.189z"/>
			<path style="fill:#7C8687;" d="M521.506,452.272v1.431h-2.836v9.395c0,0.559,0.076,0.995,0.231,1.31
				c0.152,0.315,0.535,0.491,1.146,0.527c0.486,0,0.973-0.027,1.459-0.081v1.431c-0.254,0-0.506,0.009-0.756,0.027
				c-0.254,0.017-0.506,0.026-0.758,0.026c-1.133,0-1.926-0.22-2.375-0.661c-0.451-0.441-0.666-1.256-0.648-2.443v-9.531h-2.43
				v-1.431h2.43v-4.186h1.701v4.186H521.506z"/>
		</g>
	</g>
	<g>
		<g>
			<path style="fill:#F5F5F5;" d="M317.013,395.824v10.934c1.002-1.729,2.46-3.143,4.374-4.237c1.641-0.909,3.644-1.366,6.015-1.366
				c4.282,0,7.791,1.776,10.525,5.33c2.733,3.555,4.1,8.157,4.1,13.807c0,5.651-1.367,10.252-4.1,13.806
				c-1.367,1.732-3.213,2.985-5.536,3.759c-2.324,0.773-4.626,1.162-6.903,1.162c-4.374,0-8.43-1.139-12.165-3.417
				c-3.738-2.277-5.604-6.651-5.604-13.123v-31.302h4.647c1.274,0,2.368,0.457,3.28,1.366
				C316.556,393.455,317.013,394.549,317.013,395.824z M332.596,419.882c0-3.281-0.684-5.831-2.051-7.655
				c-1.367-1.913-3.235-2.87-5.604-2.87c-2.552,0-4.511,0.912-5.878,2.733c-1.366,1.914-2.05,4.511-2.05,7.792
				c0,3.827,0.637,6.608,1.913,8.338c1.367,1.914,3.281,2.87,5.741,2.87c2.551,0,4.511-0.956,5.878-2.87
				C331.912,426.306,332.596,423.527,332.596,419.882z"/>
			<path style="fill:#F5F5F5;" d="M345.477,391.314h4.921c1.275,0,2.368,0.434,3.28,1.298c0.91,0.867,1.367,1.938,1.367,3.213
				v42.511h-9.568V391.314z"/>
			<path style="fill:#F5F5F5;" d="M389.798,401.975v21.324c0,6.472-1.687,10.709-5.058,12.712
				c-3.372,2.006-7.063,3.008-11.071,3.008c-3.92-0.184-7.497-1.275-10.73-3.28c-3.236-2.004-4.853-6.151-4.853-12.439v-21.324
				h9.568v23.238c0,2.187,0.637,3.782,1.913,4.784c1.275,1.004,2.734,1.503,4.375,1.503c1.64,0,3.12-0.499,4.442-1.503
				c1.319-1.002,1.981-2.598,1.981-4.784v-18.591c0-1.274,0.432-2.368,1.299-3.28c0.865-0.91,1.982-1.367,3.349-1.367H389.798z"/>
			<path style="fill:#F5F5F5;" d="M417.989,427.126h6.835c-1.004,3.828-2.918,6.745-5.741,8.749
				c-2.826,2.097-6.38,3.144-10.662,3.144c-5.194,0-9.25-1.686-12.165-5.058c-2.918-3.28-4.375-7.973-4.375-14.079
				c0-5.831,1.412-10.389,4.238-13.669c2.915-3.371,6.971-5.058,12.165-5.058c5.468,0,9.705,1.64,12.712,4.921
				c2.916,3.372,4.375,8.064,4.375,14.079c0,0.365,0,0.684,0,0.957c0,0.272,0,0.457,0,0.546c0,0.457-0.048,0.775-0.137,0.957
				h-23.648c0.09,2.826,0.773,4.921,2.051,6.288c1.184,1.459,2.96,2.186,5.331,2.186c1.549,0,2.87-0.317,3.964-0.956
				c0.273-0.09,0.523-0.25,0.752-0.478c0.227-0.227,0.478-0.479,0.752-0.752c0.09-0.273,0.432-0.637,1.025-1.094
				C416.052,427.354,416.895,427.126,417.989,427.126z M401.586,416.464h13.943c-0.184-2.46-0.82-4.282-1.914-5.467
				c-1.186-1.275-2.87-1.914-5.058-1.914c-2.006,0-3.646,0.639-4.921,1.914C402.359,412.273,401.676,414.096,401.586,416.464z"/>
			<path style="fill:#F5F5F5;" d="M427.453,426.306h9.295c0.09,1.824,0.773,3.191,2.051,4.102c1.367,0.911,3.189,1.366,5.469,1.366
				c1.639,0,3.051-0.318,4.236-0.956c1.094-0.637,1.641-1.504,1.641-2.598c0-1.641-1.914-2.87-5.74-3.69
				c-1.641-0.273-2.871-0.547-3.691-0.82c-4.832-1.184-8.065-2.597-9.705-4.237c-1.824-1.641-2.734-3.827-2.734-6.562
				c0-3.462,1.32-6.332,3.965-8.611c2.734-2.096,6.287-3.144,10.662-3.144c4.736,0,8.52,1.048,11.346,3.144
				c2.641,2.279,4.053,5.241,4.236,8.885h-5.877c-1.733,0-3.055-0.773-3.965-2.323c-0.365-0.363-0.73-0.729-1.094-1.094
				c-1.094-0.82-2.596-1.23-4.51-1.23c-1.824,0-3.191,0.273-4.102,0.82c-0.82,0.547-1.23,1.367-1.23,2.46
				c0,1.459,2.369,2.689,7.109,3.691c0.547,0.184,1.023,0.32,1.434,0.41c0.41,0.092,0.797,0.137,1.162,0.137
				c4.648,1.185,7.881,2.552,9.705,4.101c1.731,1.64,2.598,3.827,2.598,6.561c0,4.012-1.459,7.108-4.375,9.295
				c-2.732,2.006-6.834,3.008-12.301,3.008c-5.195,0-9.068-1.047-11.619-3.144c-2.645-2.096-3.965-5.147-3.965-9.159V426.306z"/>
			<path style="fill:#F5F5F5;" d="M478.746,438.335c-3.008,0.182-6.268,0.137-9.773-0.137c-3.51-0.273-5.264-2.505-5.264-6.698
				v-40.186h4.922c1.182,0,2.23,0.457,3.142,1.366c0.91,0.912,1.367,2.006,1.367,3.281v6.15h5.605v1.914
				c0,1.367-0.457,2.484-1.367,3.349c-0.912,0.867-2.006,1.299-3.281,1.299h-0.957v20.23c0,1.551,0.91,2.323,2.734,2.323h2.871
				V438.335z"/>
			<path style="fill:#F5F5F5;" d="M504.203,436.831c-1.914,1.004-3.943,1.617-6.082,1.846c-2.143,0.227-4.033,0.342-5.674,0.342
				c-3.281,0-6.15-0.889-8.611-2.666c-2.461-1.776-3.691-4.716-3.691-8.816c0-3.827,1.115-6.561,3.35-8.201
				c2.233-1.641,5.078-2.734,8.543-3.28c0.455,0,1.002-0.068,1.641-0.205c0.637-0.137,1.367-0.25,2.188-0.342
				c4.008-0.547,6.014-1.73,6.014-3.555c0-1.366-0.707-2.255-2.119-2.665c-1.414-0.41-2.711-0.615-3.895-0.615
				c-1.277,0-2.416,0.184-3.418,0.547c-1.004,0.365-1.733,1.049-2.188,2.051h-9.158c0.363-2.824,1.641-5.147,3.828-6.972
				c2.461-2.096,5.967-3.144,10.525-3.144c5.102,0,8.93,0.867,11.482,2.597c2.641,1.824,3.963,4.374,3.963,7.654v12.439
				c0,3.646-0.662,6.493-1.982,8.543C507.598,434.44,506.025,435.922,504.203,436.831z M502.016,420.019
				c-1.277,0.639-3.055,1.23-5.33,1.776l-3.145,0.684c-1.641,0.457-2.826,1.049-3.555,1.777c-0.639,1.004-0.957,2.006-0.957,3.007
				c0,1.367,0.41,2.461,1.23,3.281c0.82,0.73,2.004,1.093,3.555,1.093c2.551,0,4.555-0.728,6.014-2.187
				c1.457-1.457,2.188-3.462,2.188-6.015V420.019z"/>
			<path style="fill:#F5F5F5;" d="M513.668,438.335v-17.633c0-3.555,0.523-6.538,1.572-8.954c1.045-2.413,2.481-4.351,4.305-5.809
				c1.731-1.367,3.76-2.369,6.084-3.008c2.322-0.637,4.715-0.957,7.176-0.957c0.182,0,0.41,0,0.684,0c0.273,0,0.5,0,0.684,0v9.705
				h-3.145c-2.644,0-4.604,0.639-5.877,1.914c-1.277,1.277-1.914,3.28-1.914,6.015v18.727H513.668z"/>
		</g>
	</g>
	<g>
		
			<linearGradient id="SVGID_1_" gradientUnits="userSpaceOnUse" x1="429.4821" y1="210.9724" x2="420.2852" y2="162.8627" gradientTransform="matrix(0.9999 0.0162 -0.0162 0.9999 9.4435 -6.239)">
			<stop  offset="0" style="stop-color:#0071BC"/>
			<stop  offset="0.5455" style="stop-color:#29ABE2"/>
			<stop  offset="1" style="stop-color:#00FFFF"/>
		</linearGradient>
		<path style="fill:url(#SVGID_1_);" d="M438.053,168.107c-0.505,5.643-9.552,16.488-14.141,31.178
			c-1.021,3.278-1.946,7.064-2.77,11.13c8.225-2.501,17.285-5.038,27.028-6.764c-1.847-3.995-3.286-7.864-4.592-11.238
			C438.79,180.047,438.154,166.955,438.053,168.107z"/>
		
			<linearGradient id="SVGID_00000078740394552975384690000000340784692626936228_" gradientUnits="userSpaceOnUse" x1="447.6402" y1="258.3569" x2="478.8845" y2="333.627" gradientTransform="matrix(0.9999 0.0162 -0.0162 0.9999 9.4435 -6.239)">
			<stop  offset="0" style="stop-color:#0071BC"/>
			<stop  offset="0.0467" style="stop-color:#0477C0"/>
			<stop  offset="0.3164" style="stop-color:#1893D2"/>
			<stop  offset="0.4727" style="stop-color:#1F9DD9"/>
			<stop  offset="0.6039" style="stop-color:#19B1E1"/>
			<stop  offset="0.8709" style="stop-color:#09E4F5"/>
			<stop  offset="1" style="stop-color:#00FFFF"/>
		</linearGradient>
		<path style="fill:url(#SVGID_00000078740394552975384690000000340784692626936228_);" d="M478.626,254.136
			c-17.016,1.712-38.534,6.646-49.698,10.119c-2.399,0.748-4.886,1.529-7.457,2.313c2.612,3.759,5.182,7.314,7.598,10.664
			c8.35,11.582,23.669,37.125,29.275,53.657c2.478,7.298,4.028,16.415,4.646,25.373c-0.131,15.112,19.102,21.227,27.886,9.319
			l0.086,0.077c11.036-13.054,19.468-31.37,14.551-55.255C500.772,287.378,489.155,269.035,478.626,254.136z"/>
		
			<linearGradient id="SVGID_00000139264563487177533950000011644515580114208161_" gradientUnits="userSpaceOnUse" x1="424.1842" y1="296.1735" x2="362.17" y2="372.8621" gradientTransform="matrix(0.9999 0.0162 -0.0162 0.9999 9.4435 -6.239)">
			<stop  offset="0" style="stop-color:#0071BC"/>
			<stop  offset="0.2424" style="stop-color:#29ABE2"/>
			<stop  offset="1" style="stop-color:#00FFFF"/>
		</linearGradient>
		<path style="fill:url(#SVGID_00000139264563487177533950000011644515580114208161_);" d="M429.069,277.231
			c-1.434-1.99-2.934-4.074-4.456-6.208c-2.936,3.788-5.689,7.488-8.263,10.946c-8.519,11.454-28.244,33.77-42.31,44.109
			c-6.207,4.56-14.433,8.796-22.787,12.09c-14.444,4.44-14.468,24.62-0.466,29.393l-0.047,0.109
			c15.777,6.581,35.786,9.091,57.075-2.807c21.139-11.819,35.345-29.103,46.52-43.941
			C447.302,305.372,435.87,286.668,429.069,277.231z"/>
		
			<linearGradient id="SVGID_00000077285062918881567570000015082212542471260801_" gradientUnits="userSpaceOnUse" x1="436.0797" y1="290.8508" x2="475.4596" y2="267.2971" gradientTransform="matrix(0.9999 0.0162 -0.0162 0.9999 9.4435 -6.239)">
			<stop  offset="0" style="stop-color:#00FFFF"/>
			<stop  offset="0.4545" style="stop-color:#29ABE2"/>
			<stop  offset="1" style="stop-color:#0071BC"/>
		</linearGradient>
		<path style="fill:url(#SVGID_00000077285062918881567570000015082212542471260801_);" d="M523.097,257.581
			c-5.551,1.146-18.607-4.128-33.992-4.061c-3.5,0.014-10.875,0.655-10.478,0.616c4.872,6.894,9.971,14.536,14.519,23.024
			c2.94-2.646,5.796-5.021,8.448-6.971C513.992,261.078,521.571,258.802,523.097,257.581z"/>
		
			<linearGradient id="SVGID_00000131335639776489628640000006511704783672661395_" gradientUnits="userSpaceOnUse" x1="394.2456" y1="294.4714" x2="341.6987" y2="267.0141" gradientTransform="matrix(0.9999 0.0162 -0.0162 0.9999 9.4435 -6.239)">
			<stop  offset="0" style="stop-color:#0071BC"/>
			<stop  offset="0.4485" style="stop-color:#29ABE2"/>
			<stop  offset="1" style="stop-color:#00FFFF"/>
		</linearGradient>
		<path style="fill:url(#SVGID_00000131335639776489628640000006511704783672661395_);" d="M416.351,281.969
			c1.767-2.374,3.626-4.874,5.558-7.424c-4.553-1.621-8.954-3.086-13.071-4.458c-13.547-4.511-40.911-16.272-55.129-26.402
			c-6.272-4.472-12.864-10.96-18.606-17.863c-8.732-12.335-27.905-6.047-28.069,8.745l-0.114-0.008
			c-1.322,17.042,2.551,36.831,20.51,53.333c17.739,16.298,38.462,24.388,55.993,30.356
			C395.845,306.894,409.607,291.036,416.351,281.969z"/>
		
			<linearGradient id="SVGID_00000149362053879197328690000015738990407623412368_" gradientUnits="userSpaceOnUse" x1="443.6758" y1="331.924" x2="467.8201" y2="352.2805" gradientTransform="matrix(0.9999 0.0162 -0.0162 0.9999 9.4435 -6.239)">
			<stop  offset="0" style="stop-color:#0071BC"/>
			<stop  offset="0.6303" style="stop-color:#29ABE2"/>
			<stop  offset="1" style="stop-color:#00FFFF"/>
		</linearGradient>
		<path style="fill:url(#SVGID_00000149362053879197328690000015738990407623412368_);" d="M457.188,327.701l-0.001-0.002
			c-0.829-2.157-1.799-4.433-2.858-6.773c-4.965,6.593-10.541,13.662-17.047,20.528c3.484,1.989,6.68,3.983,9.393,5.915
			c8.44,6.016,14.586,13.402,19.298,18.274C460.666,358.775,465.319,348.903,457.188,327.701z"/>
		
			<linearGradient id="SVGID_00000168824842469502166610000005910610843332280506_" gradientUnits="userSpaceOnUse" x1="420.9698" y1="168.9276" x2="322.9767" y2="356.8652" gradientTransform="matrix(0.9999 0.0162 -0.0162 0.9999 9.4435 -6.239)">
			<stop  offset="0" style="stop-color:#00FFFF"/>
			<stop  offset="0.3697" style="stop-color:#29ABE2"/>
			<stop  offset="0.4727" style="stop-color:#0071BC"/>
			<stop  offset="1" style="stop-color:#0B397C"/>
		</linearGradient>
		<path style="fill:url(#SVGID_00000168824842469502166610000005910610843332280506_);" d="M408.837,270.086
			c2.263,0.756,4.613,1.534,7.022,2.347c0.093-4.376,0.104-8.578,0.124-12.542c0.071-14.277,2.726-43.941,7.928-60.607
			c4.589-14.69,13.636-25.535,14.141-31.178c0.853-9.645-7.621-18.319-17.906-16.57l0.001-0.044
			c-17.217,3.721-35.902,13.427-46.422,36.577c-9.687,21.313-11.126,42.892-11.398,61.084
			C377.165,257.741,397.682,266.371,408.837,270.086z"/>
		
			<linearGradient id="SVGID_00000061462702062634076150000003824535672271859131_" gradientUnits="userSpaceOnUse" x1="538.8853" y1="195.5101" x2="257.2081" y2="251.8458" gradientTransform="matrix(0.9999 0.0162 -0.0162 0.9999 9.4435 -6.239)">
			<stop  offset="0" style="stop-color:#00FFFF"/>
			<stop  offset="0.1237" style="stop-color:#01FCFE"/>
			<stop  offset="0.2237" style="stop-color:#04F2FA"/>
			<stop  offset="0.3154" style="stop-color:#0AE1F3"/>
			<stop  offset="0.4022" style="stop-color:#11C9EA"/>
			<stop  offset="0.4847" style="stop-color:#1BAADE"/>
			<stop  offset="0.5152" style="stop-color:#1F9DD9"/>
			<stop  offset="1" style="stop-color:#0071BC"/>
		</linearGradient>
		<path style="fill:url(#SVGID_00000061462702062634076150000003824535672271859131_);" d="M364.051,222.924
			c-3.943,0.412-7.657,0.651-10.952,0.665c-7.681,0.03-16.73-1.218-25.401-3.463c2.784,0.983,5.376,2.832,7.404,5.695
			c5.742,6.903,12.334,13.391,18.606,17.863c2.512,1.789,5.438,3.629,8.621,5.471C362.451,240.985,362.817,232.129,364.051,222.924z
			"/>
		
			<linearGradient id="SVGID_00000112614009718428775260000003393547038181295745_" gradientUnits="userSpaceOnUse" x1="404.9078" y1="241.2684" x2="477.8759" y2="229.4036" gradientTransform="matrix(0.9999 0.0162 -0.0162 0.9999 9.4435 -6.239)">
			<stop  offset="0" style="stop-color:#0071BC"/>
			<stop  offset="0.0467" style="stop-color:#0477C0"/>
			<stop  offset="0.3164" style="stop-color:#1893D2"/>
			<stop  offset="0.4727" style="stop-color:#1F9DD9"/>
			<stop  offset="0.6039" style="stop-color:#19B1E1"/>
			<stop  offset="0.8709" style="stop-color:#09E4F5"/>
			<stop  offset="1" style="stop-color:#00FFFF"/>
		</linearGradient>
		<path style="fill:url(#SVGID_00000112614009718428775260000003393547038181295745_);" d="M533.488,235.512l0.041-0.016
			c-8.752-15.288-23.643-30.172-48.888-33.211c-24.056-2.897-45.724,2.715-63.5,8.129c-3.373,16.613-5.101,38.009-5.158,49.478
			c-0.014,2.669-0.026,5.456-0.059,8.32c4.565-1.325,8.922-2.684,13.002-3.957c13.635-4.242,42.717-10.663,60.177-10.735
			c15.385-0.067,28.46,5.288,33.992,4.061C532.548,255.484,538.26,244.787,533.488,235.512z"/>
		
			<linearGradient id="SVGID_00000134235570688354038240000000378095244110069935_" gradientUnits="userSpaceOnUse" x1="365.4952" y1="314.33" x2="332.3554" y2="374.9292" gradientTransform="matrix(0.9999 0.0162 -0.0162 0.9999 9.4435 -6.239)">
			<stop  offset="0" style="stop-color:#0071BC"/>
			<stop  offset="0.297" style="stop-color:#29ABE2"/>
			<stop  offset="1" style="stop-color:#00FFFF"/>
		</linearGradient>
		<path style="fill:url(#SVGID_00000134235570688354038240000000378095244110069935_);" d="M351.253,338.168
			c8.354-3.294,16.58-7.53,22.787-12.09c2.932-2.155,6.113-4.848,9.382-7.834c-8.223-2.803-17.146-6.079-26.137-10.441
			c-0.874,4.439-1.862,8.565-2.966,12.104c-2.292,7.339-6.215,16.167-10.977,23.762
			C345.155,341.216,347.784,339.234,351.253,338.168z"/>
	</g>
</g>
</svg>
